# xmcd CD database file
#
# Track frame offsets:
#	150
#	12193
#	26867
#	42307
#	52869
#	67428
#	82880
#	102726
#
# Disc length: 1533 seconds
#
# Revision: 0
# Processed by: cddbd v1.5.1PL2 Copyright (c) Steve Scherf et al.
# Submitted via: CDex 1.51
#
DISCID=6905fb08
DTITLE=Luther Lewis - Then There Was You
DYEAR=2005
DGENRE=Country
TTITLE0=Then There Was You
TTITLE1=Great Minds Drink Alike
TTITLE2=Listen Here
TTITLE3=Amnesia
TTITLE4=Alone
TTITLE5=Sometime Things Don't Happen
TTITLE6=Five To Nine
TTITLE7=Get Gone
EXTD=YEAR: 2005
EXTT0=
EXTT1=
EXTT2=
EXTT3=
EXTT4=
EXTT5=
EXTT6=
EXTT7=
PLAYORDER=
